<svg width="24" height="24" viewBox="0 0 24 24" fill="none" xmlns="http://www.w3.org/2000/svg">
<path d="M13.8462 7.38462C13.8462 6.52776 14.1865 5.706 14.7924 5.10012C15.3983 4.49423 16.2201 4.15385 17.0769 4.15385C17.9338 4.15385 18.7555 4.49423 19.3614 5.10012C19.9673 5.706 20.3077 6.52776 20.3077 7.38462C20.3077 8.24147 19.9673 9.06323 19.3614 9.66911C18.7555 10.275 17.9338 10.6154 17.0769 10.6154C16.2201 10.6154 15.3983 10.275 14.7924 9.66911C14.1865 9.06323 13.8462 8.24147 13.8462 7.38462ZM17.0769 6C16.8951 6 16.715 6.03581 16.5471 6.1054C16.3791 6.17498 16.2264 6.27697 16.0979 6.40554C15.9693 6.53412 15.8673 6.68676 15.7977 6.85475C15.7281 7.02274 15.6923 7.20279 15.6923 7.38462C15.6923 7.56645 15.7281 7.7465 15.7977 7.91448C15.8673 8.08247 15.9693 8.23511 16.0979 8.36369C16.2264 8.49226 16.3791 8.59425 16.5471 8.66383C16.715 8.73342 16.8951 8.76923 17.0769 8.76923C17.4441 8.76923 17.7963 8.62335 18.056 8.36369C18.3157 8.10402 18.4615 7.75184 18.4615 7.38462C18.4615 7.01739 18.3157 6.66521 18.056 6.40554C17.7963 6.14588 17.4441 6 17.0769 6ZM0 4.15385C0 3.05218 0.437636 1.99563 1.21663 1.21663C1.99563 0.437636 3.05218 0 4.15385 0H19.8462C20.9478 0 22.0044 0.437636 22.7834 1.21663C23.5624 1.99563 24 3.05218 24 4.15385V19.8462C24 20.9478 23.5624 22.0044 22.7834 22.7834C22.0044 23.5624 20.9478 24 19.8462 24H4.15385C3.05218 24 1.99563 23.5624 1.21663 22.7834C0.437636 22.0044 0 20.9478 0 19.8462V4.15385ZM4.15385 1.84615C3.54181 1.84615 2.95484 2.08929 2.52206 2.52206C2.08929 2.95484 1.84615 3.54181 1.84615 4.15385V19.8462C1.84615 20.1138 1.89231 20.3695 1.97538 20.6077L10.368 12.2142C10.5823 11.9998 10.8367 11.8298 11.1167 11.7138C11.3968 11.5977 11.6969 11.538 12 11.538C12.3031 11.538 12.6032 11.5977 12.8833 11.7138C13.1633 11.8298 13.4177 11.9998 13.632 12.2142L22.0255 20.6077C22.1086 20.3695 22.1538 20.1129 22.1538 19.8462V4.15385C22.1538 3.54181 21.9107 2.95484 21.4779 2.52206C21.0452 2.08929 20.4582 1.84615 19.8462 1.84615H4.15385ZM20.7692 21.9618L12.3268 13.5194C12.2402 13.4329 12.1228 13.3843 12.0005 13.3843C11.8781 13.3843 11.7607 13.4329 11.6742 13.5194L3.23077 21.9618C3.51323 22.0855 3.82523 22.1538 4.15292 22.1538H19.8452C20.1629 22.1541 20.478 22.0887 20.7692 21.9618Z" fill="#0D99FF"/>
</svg>
