<svg width="14" height="14" viewBox="0 0 14 14" fill="none" xmlns="http://www.w3.org/2000/svg">
<path d="M0 5.33333C0 2.38667 2.38933 0 5.33667 0H8.24733C11.2407 0 13.6667 2.42667 13.6667 5.42C13.6667 7.39333 12.5953 9.20667 10.8693 10.16L5.5 13.1333V10.6733H5.45533C2.462 10.74 0 8.33333 0 5.33333ZM5.33667 1.33333C3.12533 1.33333 1.33333 3.12667 1.33333 5.33333C1.33333 7.58 3.18 9.38667 5.42533 9.34L5.65933 9.33333H6.83333V10.8667L10.2247 8.99333C11.5253 8.27333 12.3333 6.90667 12.3333 5.42C12.3333 3.16 10.504 1.33333 8.24733 1.33333H5.33667Z" fill="#8B99A6"/>
</svg>
