<svg width="24" height="28" viewBox="0 0 24 28" fill="none" xmlns="http://www.w3.org/2000/svg">
<path d="M21.5893 10.4452L12.5183 4.45621C12.2023 4.24621 11.7943 4.24621 11.4783 4.45621L2.40729 10.4462C2.14729 10.6192 1.99829 10.9022 1.99829 11.2032V24.3862C1.99829 24.8882 2.41629 25.2992 2.92729 25.2992H9.13829C9.64829 25.2992 10.0673 24.8892 10.0673 24.3862V17.3112H13.9763V24.3862C13.9763 24.8882 14.3933 25.2992 14.9043 25.2992H21.0693C21.5803 25.2992 21.9983 24.8892 21.9983 24.3862V11.2032C21.9983 10.9022 21.8393 10.6192 21.5893 10.4452Z" fill="#E8E9EA"/>
<circle cx="20.3" cy="3" r="3" fill="#1D9BF0"/>
</svg>
