<svg width="400" height="119" viewBox="0 0 400 119" fill="none" xmlns="http://www.w3.org/2000/svg">
<path d="M60.3781 8L31.3781 74L63.8781 47.5L82.3781 8H60.3781Z" fill="#1D9BF0"/>
<path d="M148.378 0.5C78.0537 38.3065 46.7833 64.8921 0.378052 118.5L156.878 0.5H148.378Z" fill="#1D9BF0"/>
<path d="M86.8781 58L69.8781 71.5L97.8781 98.5H130.878L86.8781 58Z" fill="#1D9BF0"/>
<path d="M130.878 34L117.378 80H134.378L148.378 43H176.878L178.878 34H130.878Z" fill="#1D9BF0"/>
<path d="M206.378 34H188.378L173.878 74C173.418 76.2284 173.998 77.5382 176.878 80H232.378L247.878 34H228.878L216.878 71.5H195.378L206.378 34Z" fill="#1D9BF0"/>
<path d="M236.378 11.5L213.378 27H228.878L247.878 11.5H236.378Z" fill="#1D9BF0"/>
<path d="M257.378 34L242.878 80H260.878L273.378 43H295.878L284.378 80H302.378L315.878 40.5C315.2 38.1105 314.417 36.6818 312.378 34H257.378Z" fill="#1D9BF0"/>
<path d="M330.878 24.5L312.378 80H330.878L398.378 29.5H379.878L337.878 60.5L353.378 8L330.878 24.5Z" fill="#1D9BF0"/>
<path d="M364.878 60.5L348.378 74L372.378 96.5L398.378 94L364.878 60.5Z" fill="#1D9BF0"/>
<path d="M60.3781 8L31.3781 74L63.8781 47.5L82.3781 8H60.3781Z" stroke="#1D9BF0"/>
<path d="M148.378 0.5C78.0537 38.3065 46.7833 64.8921 0.378052 118.5L156.878 0.5H148.378Z" stroke="#1D9BF0"/>
<path d="M86.8781 58L69.8781 71.5L97.8781 98.5H130.878L86.8781 58Z" stroke="#1D9BF0"/>
<path d="M130.878 34L117.378 80H134.378L148.378 43H176.878L178.878 34H130.878Z" stroke="#1D9BF0"/>
<path d="M206.378 34H188.378L173.878 74C173.418 76.2284 173.998 77.5382 176.878 80H232.378L247.878 34H228.878L216.878 71.5H195.378L206.378 34Z" stroke="#1D9BF0"/>
<path d="M236.378 11.5L213.378 27H228.878L247.878 11.5H236.378Z" stroke="#1D9BF0"/>
<path d="M257.378 34L242.878 80H260.878L273.378 43H295.878L284.378 80H302.378L315.878 40.5C315.2 38.1105 314.417 36.6818 312.378 34H257.378Z" stroke="#1D9BF0"/>
<path d="M330.878 24.5L312.378 80H330.878L398.378 29.5H379.878L337.878 60.5L353.378 8L330.878 24.5Z" stroke="#1D9BF0"/>
<path d="M364.878 60.5L348.378 74L372.378 96.5L398.378 94L364.878 60.5Z" stroke="#1D9BF0"/>
</svg>
