<svg width="95" height="101" viewBox="0 0 95 101" fill="none" xmlns="http://www.w3.org/2000/svg">
<path d="M61.7063 42.372L20.7063 1.37196L22.7063 18.372L37.2063 30.372L11.2063 16.372L14.7063 29.372L58.2063 47.872C60.1434 52.4647 61.532 54.5955 64.7063 57.372C62.9402 52.2248 62.0618 49.2054 61.7063 42.372Z" fill="#0D99FF"/>
<path d="M56.7063 49.872L4.2063 26.872L12.7063 42.372L30.7063 48.872L1.2063 45.872L11.2063 57.372L34.7063 58.872L11.2063 60.372L21.2063 69.372L39.2063 66.372L21.2063 72.872L33.2063 77.372L45.7063 69.372L36.7063 79.372L47.7063 78.872L53.7063 74.872C51.1567 77.6736 49.7344 79.449 47.2063 82.872C39.4643 89.3058 34.9495 92.6613 26.7063 98.372L37.2063 95.872L34.7063 100.372L42.7063 94.872L44.2063 98.372L53.7063 88.872C71.4718 83.7996 78.4769 77.9965 83.7063 60.372C86.6875 56.4252 88.7784 54.4971 93.7063 51.872C90.0201 50.4217 87.9409 50.5804 84.2063 52.872C80.4963 51.1779 78.4163 51.2112 74.7063 52.872L66.7063 58.872C69.0986 60.2994 70.2907 61.0792 71.7063 62.372H67.7063C62.0049 58.3301 59.5189 55.64 56.7063 49.872Z" fill="#0D99FF"/>
<path d="M61.7063 42.372L20.7063 1.37196L22.7063 18.372L37.2063 30.372L11.2063 16.372L14.7063 29.372L58.2063 47.872C60.1434 52.4647 61.532 54.5955 64.7063 57.372C62.9402 52.2248 62.0618 49.2054 61.7063 42.372Z" stroke="#1D9BF0"/>
<path d="M56.7063 49.872L4.2063 26.872L12.7063 42.372L30.7063 48.872L1.2063 45.872L11.2063 57.372L34.7063 58.872L11.2063 60.372L21.2063 69.372L39.2063 66.372L21.2063 72.872L33.2063 77.372L45.7063 69.372L36.7063 79.372L47.7063 78.872L53.7063 74.872C51.1567 77.6736 49.7344 79.449 47.2063 82.872C39.4643 89.3058 34.9495 92.6613 26.7063 98.372L37.2063 95.872L34.7063 100.372L42.7063 94.872L44.2063 98.372L53.7063 88.872C71.4718 83.7996 78.4769 77.9965 83.7063 60.372C86.6875 56.4252 88.7784 54.4971 93.7063 51.872C90.0201 50.4217 87.9409 50.5804 84.2063 52.872C80.4963 51.1779 78.4163 51.2112 74.7063 52.872L66.7063 58.872C69.0986 60.2994 70.2907 61.0792 71.7063 62.372H67.7063C62.0049 58.3301 59.5189 55.64 56.7063 49.872Z" stroke="#1D9BF0"/>
</svg>
