<svg width="24" height="24" viewBox="0 0 24 24" fill="none" xmlns="http://www.w3.org/2000/svg">
<path d="M19.9932 9.04194C19.4802 5.01694 16.0542 1.99994 11.9962 1.99994C7.93821 1.99994 4.50621 5.02094 3.99721 9.05094L2.86621 17.9999H7.10021C7.56321 20.2819 9.58121 21.9999 12.0002 21.9999C14.4192 21.9999 16.4372 20.2819 16.9002 17.9999H21.1362L19.9932 9.04194ZM12.0002 19.9999C10.6942 19.9999 9.58321 19.1649 9.17121 17.9999H14.8292C14.4172 19.1649 13.3062 19.9999 12.0002 19.9999ZM5.13421 15.9999L5.98121 9.30194C6.36421 6.27194 8.94121 3.99994 11.9962 3.99994C15.0512 3.99994 17.6232 6.26794 18.0092 9.29494L18.8642 15.9999H5.13421Z" fill="#E8E9EA"/>
<rect x="18" y="1" width="4" height="4" rx="2" fill="#1D9BF0"/>
</svg>
