<svg width="24" height="24" viewBox="0 0 24 24" fill="none" xmlns="http://www.w3.org/2000/svg">
<path d="M19.9931 9.04188C19.4801 5.01688 16.0541 1.99988 11.9961 1.99988C7.93812 1.99988 4.50612 5.02088 3.99712 9.05088L2.86612 17.9999H7.10012C7.56312 20.2819 9.58112 21.9999 12.0001 21.9999C14.4191 21.9999 16.4371 20.2819 16.9001 17.9999H21.1361L19.9931 9.04188ZM12.0001 19.9999C10.6941 19.9999 9.58312 19.1649 9.17112 17.9999H14.8291C14.4171 19.1649 13.3061 19.9999 12.0001 19.9999ZM5.13412 15.9999L5.98112 9.30188C6.36412 6.27188 8.94112 3.99988 11.9961 3.99988C15.0511 3.99988 17.6231 6.26788 18.0091 9.29488L18.8641 15.9999H5.13412Z" fill="#E8E9EA"/>
</svg>
