<svg width="22" height="19" viewBox="0 0 22 19" fill="none" xmlns="http://www.w3.org/2000/svg">
<path d="M13.3291 8.69467C12.9871 6.01133 10.7031 4 7.9978 4C5.29247 4 3.00447 6.014 2.66513 8.70067L1.91113 14.6667H4.7338C5.04247 16.188 6.3878 17.3333 8.00047 17.3333C9.61313 17.3333 10.9585 16.188 11.2671 14.6667H14.0911L13.3291 8.69467ZM8.00047 16C7.1298 16 6.38913 15.4433 6.11447 14.6667H9.88647C9.6118 15.4433 8.87113 16 8.00047 16ZM3.42313 13.3333L3.9878 8.868C4.24313 6.848 5.96113 5.33333 7.9978 5.33333C10.0345 5.33333 11.7491 6.84533 12.0065 8.86333L12.5765 13.3333H3.42313Z" fill="#E8E9EA"/>
<rect x="10.667" width="10.6667" height="10.6667" rx="5.33333" fill="#1D9BF0"/>
</svg>
