<svg width="16" height="11" viewBox="0 0 16 11" fill="none" xmlns="http://www.w3.org/2000/svg">
<path d="M2.95467 0L5.90933 2.76L5 3.73333L3.62133 2.44667V8.08C3.62133 8.81333 4.21867 9.41333 4.95467 9.41333H8.62133V10.7467H4.95467C3.482 10.7467 2.288 9.55333 2.288 8.08V2.44667L0.909333 3.73333L0 2.76L2.95467 0ZM10.9547 1.41333H7.288V0.0799999H10.9547C12.4273 0.0799999 13.6213 1.27333 13.6213 2.74667V8.38L15 7.09333L15.9093 8.06667L12.9547 10.8267L10 8.06667L10.9093 7.09333L12.288 8.38V2.74667C12.288 2.01333 11.6907 1.41333 10.9547 1.41333Z" fill="#8B99A6"/>
</svg>
