<svg width="14" height="3" viewBox="0 0 14 3" fill="none" xmlns="http://www.w3.org/2000/svg">
<path d="M0 1.44709C0 0.651192 0.651192 0 1.44709 0C2.24299 0 2.89419 0.651192 2.89419 1.44709C2.89419 2.24299 2.24299 2.89419 1.44709 2.89419C0.651192 2.89419 0 2.24299 0 1.44709ZM6.51192 2.89419C7.30782 2.89419 7.95901 2.24299 7.95901 1.44709C7.95901 0.651192 7.30782 0 6.51192 0C5.71602 0 5.06483 0.651192 5.06483 1.44709C5.06483 2.24299 5.71602 2.89419 6.51192 2.89419ZM11.5767 2.89419C12.3726 2.89419 13.0238 2.24299 13.0238 1.44709C13.0238 0.651192 12.3726 0 11.5767 0C10.7808 0 10.1297 0.651192 10.1297 1.44709C10.1297 2.24299 10.7808 2.89419 11.5767 2.89419Z" fill="#5C6D7D"/>
</svg>
