<svg width="14" height="12" viewBox="0 0 14 12" fill="none" xmlns="http://www.w3.org/2000/svg">
<path d="M9.79821 1.33213C8.98354 1.29213 8.01221 1.67213 7.20487 2.77213L6.66821 3.4988L6.13087 2.77213C5.32287 1.67213 4.35087 1.29213 3.53621 1.33213C2.70754 1.3788 1.97021 1.85213 1.59621 2.60546C1.22821 3.35213 1.17421 4.4588 1.91554 5.8188C2.63154 7.13213 4.08687 8.66546 6.66821 10.2255C9.24821 8.66546 10.7029 7.13213 11.4189 5.8188C12.1595 4.4588 12.1055 3.35213 11.7369 2.60546C11.3629 1.85213 10.6262 1.3788 9.79821 1.33213ZM12.5895 6.4588C11.6889 8.11213 9.9222 9.87213 7.00354 11.5721L6.66821 11.7721L6.33221 11.5721C3.41287 9.87213 1.64621 8.11213 0.744206 6.4588C-0.162461 4.79213 -0.195794 3.2188 0.401539 2.01213C0.992873 0.818797 2.16621 0.0721307 3.46887 0.00546401C4.56954 -0.054536 5.71421 0.378797 6.66754 1.34546C7.62021 0.378797 8.76487 -0.054536 9.86487 0.00546401C11.1675 0.0721307 12.3409 0.818797 12.9322 2.01213C13.5295 3.2188 13.4962 4.79213 12.5895 6.4588Z" fill="#8B99A6"/>
</svg>
