<svg width="16" height="16" viewBox="0 0 16 16" fill="none" xmlns="http://www.w3.org/2000/svg">
<g clip-path="url(#clip0_146_1048)">
<path d="M3.00008 2.58667L5.95474 5.34667L5.04541 6.32L3.66674 5.03334V10.6667C3.66674 11.4 4.26408 12 5.00008 12H8.66674V13.3333H5.00008C3.52741 13.3333 2.33341 12.14 2.33341 10.6667V5.03334L0.954743 6.32L0.0454102 5.34667L3.00008 2.58667ZM11.0001 4H7.33341V2.66667H11.0001C12.4727 2.66667 13.6667 3.86 13.6667 5.33334V10.9667L15.0454 9.68L15.9547 10.6533L13.0001 13.4133L10.0454 10.6533L10.9547 9.68L12.3334 10.9667V5.33334C12.3334 4.6 11.7361 4 11.0001 4Z" fill="#00BA7C"/>
</g>
<defs>
<clipPath id="clip0_146_1048">
<rect width="16" height="16" fill="white"/>
</clipPath>
</defs>
</svg>
